<svg xmlns="http://www.w3.org/2000/svg" xmlns:xlink="http://www.w3.org/1999/xlink" viewBox="0 0 32 26.79"><defs><style>.cls-1{fill-rule:evenodd;fill:url(#linear-gradient);}</style><linearGradient id="linear-gradient" x1="12.9" y1="3.77" x2="33.75" y2="24.63" gradientUnits="userSpaceOnUse"><stop offset="0" stop-color="#6acdf4"/><stop offset="0.1" stop-color="#70ccec"/><stop offset="0.26" stop-color="#7fc8d7"/><stop offset="0.46" stop-color="#99c3b4"/><stop offset="0.68" stop-color="#bdbb83"/><stop offset="0.92" stop-color="#eab145"/><stop offset="1" stop-color="#faad2f"/></linearGradient></defs><title>favicon</title><g id="Layer_2" data-name="Layer 2"><g id="Layer_1-2" data-name="Layer 1"><path class="cls-1" d="M2.32,0c0,1.05-1.07,3.07-.15,3.81.2.17.34.13.6.08.22-.49.8-1.92,1.34-2a1.3,1.3,0,0,1,.15.75,4.24,4.24,0,0,0,.08,3.06l.07-.07c.45-.46,1.22-2.34,1.72-2.4a2,2,0,0,1,.08.6c-.3.39-.26,1-.45,1.5-.27.68-1.2,1.92-.9,3s1.27,2.07,1.79,3.06h.08V11a3.46,3.46,0,0,1-.37-1.57.75.75,0,0,1,.37-.15c.51,1.1,1.4,3.06,2.32,3.74.4.3.82.47,1.27.75a2.21,2.21,0,0,0,1.27.52c.08-.06,0,0,.15-.07a3.94,3.94,0,0,0,.15-2.77L12,9.79a.82.82,0,0,1,.45-.15c.95,1.87.64,5,2.39,6.06a3.1,3.1,0,0,0,2.55-.07c1.17-.8,1.74-4.12,2.09-5.84a.82.82,0,0,1,.45-.15,2.68,2.68,0,0,1,.15,1.2c.28.46-.15,1.52-.23,1.95a3.56,3.56,0,0,0,.3,1.34c1.67.4,3.54-1.72,4.19-2.92.3-.55.55-1.83,1.27-1.94a2,2,0,0,1,.07.6,3.41,3.41,0,0,0-.37,1.49h.08c.4-.67,2.13-2.76,1.86-3.88C26.89,6.1,25.84,5,25.79,3.29a1.37,1.37,0,0,1,.38-.08,11.67,11.67,0,0,0,.67,1.43,5.34,5.34,0,0,1,.75,1.12c.06-.08,0,0,.07-.15.71-.76.11-2.57.08-3.59A.86.86,0,0,0,28,1.87c.13,0,.08,0,.15.07.83.37.47,1.9,1.57,2,.08-.06,0,0,.15-.07.8-1.33-.06-2.44-.15-3.89h.38c.12.37.44.69.59,1.05A9.91,9.91,0,0,1,31,2.47c.11.47-.09,1.2.15,1.57.09.06.12.06.3.07s.15-.11.37-.15l.15.15c-.05.13,0,.07-.07.15-.47,1.27-2.34,1-2.47,2.69h.07a2.27,2.27,0,0,1,.53-.22V7a7.55,7.55,0,0,0-.45.9,5.85,5.85,0,0,0-1.12,1.94h.07c.27-.31.67-1.07,1.12-1.12a1.67,1.67,0,0,1,.08.6c-.13.18-.07.42-.15.67a5.28,5.28,0,0,1-.68,1.34c-.77,1.08-2.13,1.23-3.29,2a14.82,14.82,0,0,1-1.86,1.27,20.26,20.26,0,0,0-2.55,1.12,7.6,7.6,0,0,1-.82.52c-.43.19-1.21.27-1.42.68-.06.08,0,.07-.07.22a1.16,1.16,0,0,0,.29.08c.17-.39.62-.42,1-.6,1-.5,2.41-1.31,3.81-1.05l.07.23c.34.53-.2,1.32-.37,1.64a4.23,4.23,0,0,1-2.54,2.17c-.52.16-1.2.11-1.65.3a15.63,15.63,0,0,1-.37,2.24,13.18,13.18,0,0,1-.3,1.94,8.94,8.94,0,0,1-.9,1.2c-.31.5-.28,1.14-.89,1.35-.44.34-1.5.09-2.17.07l-.52-.52c-.17-.31-.12-.62-.3-.9a6.84,6.84,0,0,1-.9-1.2c-.48-1.13-.42-2.86-.67-4.11-.57-.3-1.56-.26-2.17-.52-1.18-.51-2.75-2.05-2.39-3.81l.22-.08c.37-.24,1,.06,1.27.15a21.39,21.39,0,0,1,2.09.67l1.5.83v-.08c.06-.08,0-.07.07-.22s0,0-.07-.15a8.72,8.72,0,0,1-2.24-1.05c-.68-.37-1.42-.75-2.1-1l-1-.29c-.52-.31-1-.81-1.49-1.13-1.12-.68-2.39-.83-3.14-1.87a4.35,4.35,0,0,1-.83-2.54,1.12,1.12,0,0,1,.38-.07c.19.35.41.83.82,1V9.57a7.59,7.59,0,0,1-.37-.82C2.69,8.14,2,7.69,1.94,6.8a1.55,1.55,0,0,1,.6.15V6.58C2.34,6.33,2.28,6,2,5.76,1.6,5.45,1.09,5.31.67,5L0,4.26V4.11A.82.82,0,0,1,.45,4c.13.13.19.13.45.15C.85,2.79,1.27.05,2.32,0Z"/></g></g></svg>